HIERARCHY
ROOT joint_Root
{
	OFFSET 0.0 0.0 0.0
	CHANNELS 6 Xposition Yposition Zposition Zrotation Xrotation Yrotation 
	JOINT Hips
	{
		OFFSET -17.1583 93.1646 452.98
		CHANNELS 6 Xposition Yposition Zposition Zrotation Xrotation Yrotation 
		JOINT Spine
		{
			OFFSET 15.7357 0.0 0.0
			CHANNELS 6 Xposition Yposition Zposition Zrotation Xrotation Yrotation 
			JOINT Chest
			{
				OFFSET 8.98455 -0.406207 0.0
				CHANNELS 6 Xposition Yposition Zposition Zrotation Xrotation Yrotation 
				JOINT Neck
				{
					OFFSET 16.3773 0.0 0.0
					CHANNELS 6 Xposition Yposition Zposition Zrotation Xrotation Yrotation 
					JOINT Head
					{
						OFFSET 6.45672 0.0 0.0
						CHANNELS 6 Xposition Yposition Zposition Zrotation Xrotation Yrotation 
						End Site
						{
							OFFSET 0.0 0.0 0.0
						}
					}
				}
				JOINT Shoulder_L
				{
					OFFSET 12.9942 -0.242716 4.98039
					CHANNELS 6 Xposition Yposition Zposition Zrotation Xrotation Yrotation 
					JOINT UpperArm_L
					{
						OFFSET 5.34809 0.0 0.0
						CHANNELS 6 Xposition Yposition Zposition Zrotation Xrotation Yrotation 
						JOINT LowerArm_L
						{
							OFFSET 24.3286 1.87007e-05 0.0
							CHANNELS 6 Xposition Yposition Zposition Zrotation Xrotation Yrotation 
							JOINT Hand_L
							{
								OFFSET 22.2916 0.0 0.0
								CHANNELS 6 Xposition Yposition Zposition Zrotation Xrotation Yrotation 
								End Site
								{
									OFFSET 0.0 0.0 0.0
								}
							}
						}
					}
				}
				JOINT Shoulder_R
				{
					OFFSET 12.9945 -0.242716 -4.98039
					CHANNELS 6 Xposition Yposition Zposition Zrotation Xrotation Yrotation 
					JOINT UpperArm_R
					{
						OFFSET -5.34813 0.0 0.0
						CHANNELS 6 Xposition Yposition Zposition Zrotation Xrotation Yrotation 
						JOINT LowerArm_R
						{
							OFFSET -24.3289 0.000322201 0.0
							CHANNELS 6 Xposition Yposition Zposition Zrotation Xrotation Yrotation 
							JOINT Hand_R
							{
								OFFSET -22.2915 -0.000108084 0.0
								CHANNELS 6 Xposition Yposition Zposition Zrotation Xrotation Yrotation 
								End Site
								{
									OFFSET 0.0 0.0 0.0
								}
							}
						}
					}
				}
			}
		}
		JOINT UpperLeg_L
		{
			OFFSET -2.19248 -6.46944 0.0
			CHANNELS 6 Xposition Yposition Zposition Zrotation Xrotation Yrotation 
			JOINT LowerLeg_L
			{
				OFFSET 39.0811 0.0 -1.23785e-05
				CHANNELS 6 Xposition Yposition Zposition Zrotation Xrotation Yrotation 
				JOINT Foot_L
				{
					OFFSET 40.9854 0.0 -1.26872e-05
					CHANNELS 6 Xposition Yposition Zposition Zrotation Xrotation Yrotation 
					JOINT Toes_L
					{
						OFFSET 11.7543 0.0 0.0
						CHANNELS 6 Xposition Yposition Zposition Zrotation Xrotation Yrotation 
						End Site
						{
							OFFSET 0.0 0.0 0.0
						}
					}
				}
			}
		}
		JOINT UpperLeg_R
		{
			OFFSET -2.19251 6.46944 0.0
			CHANNELS 6 Xposition Yposition Zposition Zrotation Xrotation Yrotation 
			JOINT LowerLeg_R
			{
				OFFSET -39.0811 -0.00228153 -0.0401928
				CHANNELS 6 Xposition Yposition Zposition Zrotation Xrotation Yrotation 
				JOINT Foot_R
				{
					OFFSET -40.9854 0.0 0.0
					CHANNELS 6 Xposition Yposition Zposition Zrotation Xrotation Yrotation 
					JOINT Toes_R
					{
						OFFSET -11.7543 0.0 0.0
						CHANNELS 6 Xposition Yposition Zposition Zrotation Xrotation Yrotation 
						End Site
						{
							OFFSET 0.0 0.0 0.0
						}
					}
				}
			}
		}
	}
}
MOTION
Frames:	8
Frame Time:	0.0333333
0.000000 0.000000 0.000000 0.000000 0.000000 -0.000000 132.300000 88.957800 244.522000 -82.131900 54.176400 167.283000 15.735700 0.000005 -0.000001 160.343000 86.326400 -158.755000 8.984550 -0.406207 -0.000000 -5.406530 6.728530 3.499500 16.377300 -0.000001 -0.000001 0.163057 13.923400 4.688370 6.456720 -0.000001 -0.000000 9.948390 22.726000 6.687200 12.994200 -0.242716 4.980390 -93.180800 7.894520 -67.971700 5.348090 -0.000007 -0.000001 -43.563100 -24.291100 14.452900 24.328600 0.000019 0.000005 -0.114866 -1.455890 -4.493380 22.291600 -0.000001 0.000005 23.343200 4.703510 13.117300 12.994500 -0.242716 -4.980390 89.567800 1.650130 -75.322200 -5.348130 -0.000001 -0.000004 -61.595200 -2.350170 -24.967200 -24.328900 0.000322 -0.000009 -3.920900 -3.330940 -49.703000 -22.291500 -0.000108 -0.000004 15.390000 5.422940 -3.696700 -2.192480 -6.469440 -0.000000 170.146000 -8.187730 -31.761700 39.081100 -0.000007 -0.000012 -0.002206 0.010996 11.341900 40.985400 -0.000006 -0.000013 11.939300 0.154534 -60.137100 11.754300 -0.000000 0.000003 0.001021 0.019449 -15.787900 -2.192510 6.469440 -0.000001 174.140000 19.450700 -174.787000 -39.081100 -0.002282 -0.040193 -0.017832 0.038351 28.860900 -40.985400 0.000008 0.000006 -18.679300 -3.944870 -60.726300 -11.754300 -0.000006 -0.000006 -0.050908 -0.300981 -28.972800
0.000000 0.000000 0.000000 0.000000 0.000000 -0.000000 136.175000 88.324800 241.310000 -83.388000 53.637300 167.211000 15.735700 0.000005 -0.000001 164.806000 86.707700 -163.720000 8.984550 -0.406207 -0.000000 -6.118630 6.213250 2.507170 16.377300 -0.000001 -0.000001 -0.950837 13.724200 5.051090 6.456720 -0.000001 -0.000000 9.003250 22.664800 6.755990 12.994200 -0.242716 4.980390 -93.408400 8.545890 -68.159700 5.348090 -0.000007 -0.000001 -47.140900 -22.018500 13.204200 24.328600 0.000019 0.000005 0.198456 3.740300 -3.039150 22.291600 -0.000001 0.000005 12.222400 4.559650 15.616200 12.994500 -0.242716 -4.980390 89.275500 2.767330 -75.323100 -5.348130 -0.000001 -0.000004 -62.447300 0.949145 -21.809100 -24.328900 0.000322 -0.000009 0.112945 0.096701 -49.756800 -22.291500 -0.000108 -0.000004 11.295700 5.407810 -3.199490 -2.192480 -6.469440 -0.000000 169.739000 -6.295700 -36.575600 39.081100 -0.000007 -0.000012 0.150345 -0.371726 22.021100 40.985400 -0.000006 -0.000013 13.694700 -1.422760 -55.463000 11.754300 -0.000000 0.000003 0.001873 0.042159 -14.866600 -2.192510 6.469440 -0.000001 173.180000 17.491700 -177.049000 -39.081100 -0.002282 -0.040193 0.100728 -0.143604 34.156900 -40.985400 0.000008 0.000006 -17.559500 -6.109820 -54.025900 -11.754300 -0.000006 -0.000006 -0.122089 -0.496352 -37.410300
0.000000 0.000000 0.000000 0.000000 0.000000 -0.000000 140.290000 87.809600 237.664000 -85.437600 51.908000 170.567000 15.735700 0.000005 -0.000001 151.879000 86.841200 -151.279000 8.984550 -0.406207 -0.000000 -4.828680 5.500690 1.431810 16.377300 -0.000001 -0.000001 -1.768120 13.230500 4.493240 6.456720 -0.000001 -0.000000 7.543240 21.880300 7.293810 12.994200 -0.242716 4.980390 -93.506300 8.867380 -68.322800 5.348090 -0.000007 -0.000001 -52.557600 -20.317300 10.361300 24.328600 0.000019 0.000005 0.733565 12.590500 -3.358870 22.291600 -0.000001 0.000005 3.684280 4.557410 15.629200 12.994500 -0.242716 -4.980390 88.998500 3.779630 -75.147700 -5.348130 -0.000001 -0.000004 -63.940300 2.069970 -16.729400 -24.328900 0.000322 -0.000009 7.404280 6.480740 -49.035700 -22.291500 -0.000108 -0.000004 4.137390 5.439770 -4.283360 -2.192480 -6.469440 -0.000000 169.275000 -4.476240 -35.920900 39.081100 -0.000007 -0.000012 0.285945 -0.477631 30.908200 40.985400 -0.000006 -0.000013 13.516300 -1.438580 -58.538800 11.754300 -0.000000 0.000003 0.002325 0.062389 -14.046300 -2.192510 6.469440 -0.000001 171.825000 14.345200 -177.927000 -39.081100 -0.002282 -0.040193 0.248700 -0.282658 40.967200 -40.985400 0.000008 0.000006 -13.371200 -8.469320 -43.089300 -11.754300 -0.000006 -0.000006 -0.120149 -0.492025 -37.218100
0.000000 0.000000 0.000000 0.000000 0.000000 -0.000000 143.965000 87.319900 234.034000 -86.748800 49.526700 173.920000 15.735700 0.000005 -0.000001 137.180000 86.615100 -136.706000 8.984550 -0.406207 -0.000000 -3.190240 4.918050 1.085840 16.377300 -0.000001 -0.000001 -1.223940 12.701400 3.433920 6.456720 -0.000001 -0.000000 6.163630 20.529400 6.251780 12.994200 -0.242716 4.980390 -93.409500 8.759320 -68.633600 5.348090 -0.000007 -0.000001 -59.737300 -15.126400 6.526680 24.328600 0.000019 0.000005 2.335180 24.631000 -5.584390 22.291600 -0.000001 0.000005 -2.565770 4.774580 11.755700 12.994500 -0.242716 -4.980390 88.688500 4.618950 -74.130800 -5.348130 -0.000001 -0.000004 -64.150000 3.268050 -12.356300 -24.328900 0.000322 -0.000009 10.488900 11.004500 -44.130400 -22.291500 -0.000108 -0.000004 -0.791118 5.417990 -3.517280 -2.192480 -6.469440 -0.000000 168.266000 -4.570810 -32.945900 39.081100 -0.000007 -0.000012 0.474026 -0.627977 37.048300 40.985400 -0.000006 -0.000013 14.132300 -0.396409 -64.219200 11.754300 -0.000000 0.000003 0.002474 0.089831 -12.933700 -2.192510 6.469440 -0.000001 171.214000 10.696300 179.148000 -39.081100 -0.002282 -0.040193 0.407854 -0.345122 49.537000 -40.985400 0.000008 0.000006 -10.199900 -8.941530 -28.638700 -11.754300 -0.000006 -0.000006 -0.007922 -0.087391 -20.131600
0.000000 0.000000 0.000000 0.000000 0.000000 -0.000000 146.867000 86.931200 230.648000 -88.297100 47.453700 176.647000 15.735700 0.000005 -0.000001 127.697000 86.652000 -127.267000 8.984550 -0.406207 -0.000000 -2.485420 4.054720 0.949219 16.377300 -0.000001 -0.000001 0.233442 12.678800 1.957540 6.456720 -0.000001 -0.000000 6.331170 19.978000 4.573680 12.994200 -0.242716 4.980390 -93.715700 9.536630 -68.596200 5.348090 -0.000007 -0.000001 -64.358000 -6.824770 3.793770 24.328600 0.000019 0.000005 6.273950 35.722900 -10.661700 22.291600 -0.000001 0.000005 -8.706460 5.141270 4.106300 12.994500 -0.242716 -4.980390 88.252000 5.797140 -73.188200 -5.348130 -0.000001 -0.000004 -63.081500 4.131150 -8.736210 -24.328900 0.000322 -0.000009 9.244440 13.700400 -34.501100 -22.291500 -0.000108 -0.000004 -3.271530 5.343220 -1.174560 -2.192480 -6.469440 -0.000000 166.878000 -5.151620 -29.532400 39.081100 -0.000007 -0.000012 0.628915 -0.746480 40.116200 40.985400 -0.000006 -0.000013 15.162000 1.011150 -68.554500 11.754300 -0.000000 0.000003 0.001975 0.121857 -11.635300 -2.192510 6.469440 -0.000001 170.224000 8.216810 174.066000 -39.081100 -0.002282 -0.040193 0.452928 -0.293757 56.847500 -40.985400 0.000008 0.000006 -7.925710 -4.435480 -15.290000 -11.754300 -0.000006 -0.000006 0.001186 0.144503 -10.713100
0.000000 0.000000 0.000000 0.000000 0.000000 -0.000000 149.594000 87.431900 227.357000 -89.657100 44.318600 178.702000 15.735700 0.000005 -0.000001 114.454000 86.922100 -113.946000 8.984550 -0.406207 -0.000000 -2.174060 2.503520 1.064340 16.377300 -0.000001 -0.000001 1.493490 12.775700 0.010645 6.456720 -0.000001 -0.000000 7.858100 19.815400 2.954110 12.994200 -0.242716 4.980390 -93.929000 10.190200 -68.783200 5.348090 -0.000007 -0.000001 -67.034800 1.881930 1.536060 24.328600 0.000019 0.000005 9.995900 36.748000 -16.415600 22.291600 -0.000001 0.000005 -11.641500 5.374720 -2.135030 12.994500 -0.242716 -4.980390 88.127300 6.058470 -72.787500 -5.348130 -0.000001 -0.000004 -62.721300 1.517350 -5.134300 -24.328900 0.000322 -0.000009 6.158670 15.756100 -21.674100 -22.291500 -0.000108 -0.000004 -2.453680 5.336640 -0.980810 -2.192480 -6.469440 -0.000000 165.935000 -5.531950 -23.997500 39.081100 -0.000007 -0.000012 0.631318 -0.790866 38.600900 40.985400 -0.000006 -0.000013 16.277400 3.529850 -71.378100 11.754300 -0.000000 0.000003 0.001577 0.134532 -11.121200 -2.192510 6.469440 -0.000001 169.186000 6.886940 168.699000 -39.081100 -0.002282 -0.040193 0.416470 -0.197647 64.442500 -40.985400 0.000008 0.000006 -9.538930 0.687214 -22.587300 -11.754300 -0.000006 -0.000006 0.001103 0.146391 -10.636500
0.000000 0.000000 0.000000 0.000000 0.000000 -0.000000 152.349000 88.376800 224.318000 -89.540000 40.385800 -179.835000 15.735700 0.000005 -0.000001 99.318200 86.740700 -98.314400 8.984550 -0.406207 -0.000000 -1.341140 0.975515 2.018320 16.377300 -0.000001 -0.000001 2.407380 12.560000 -1.908200 6.456720 -0.000001 -0.000000 9.285090 19.325700 1.035800 12.994200 -0.242716 4.980390 -93.811600 10.104100 -69.205600 5.348090 -0.000007 -0.000001 -69.194300 6.326540 -1.237870 24.328600 0.000019 0.000005 10.725300 30.748300 -20.330300 22.291600 -0.000001 0.000005 -11.135700 5.391640 -2.674570 12.994500 -0.242716 -4.980390 88.188200 5.652470 -72.195000 -5.348130 -0.000001 -0.000004 -61.652400 -3.623870 -1.608370 -24.328900 0.000322 -0.000009 2.396630 16.167700 -8.551150 -22.291500 -0.000108 -0.000004 0.150328 5.288630 0.380040 -2.192480 -6.469440 -0.000000 166.674000 -4.588480 -16.857600 39.081100 -0.000007 -0.000012 0.542176 -0.776314 34.931900 40.985400 -0.000006 -0.000013 16.806000 5.834530 -73.041900 11.754300 -0.000000 0.000003 0.001503 0.136542 -11.039600 -2.192510 6.469440 -0.000001 169.465000 5.847790 164.443000 -39.081100 -0.002282 -0.040193 0.362324 -0.140554 68.629700 -40.985400 0.000008 0.000006 -9.151050 1.127140 -31.639900 -11.754300 -0.000006 -0.000006 0.000930 0.150195 -10.482100
0.000000 0.000000 0.000000 0.000000 0.000000 -0.000000 155.100000 89.508300 221.538000 -88.401200 36.094100 -179.095000 15.735700 0.000005 -0.000001 87.626800 86.279300 -85.834100 8.984550 -0.406207 -0.000000 -0.321590 -0.434529 3.582050 16.377300 -0.000001 -0.000001 2.986720 12.130400 -3.372000 6.456720 -0.000001 -0.000000 9.765130 18.491600 -1.099900 12.994200 -0.242716 4.980390 -93.537700 9.592030 -69.644300 5.348090 -0.000007 -0.000001 -70.796300 9.747550 -4.170650 24.328600 0.000019 0.000005 11.883000 26.208100 -25.476100 22.291600 -0.000001 0.000005 -8.227870 5.305960 -0.103438 12.994500 -0.242716 -4.980390 88.375800 4.878560 -71.560500 -5.348130 -0.000001 -0.000004 -59.287400 -10.753900 2.863900 -24.328900 0.000322 -0.000009 -0.001131 16.873700 0.000074 -22.291500 -0.000108 -0.000004 2.556820 5.106030 4.959540 -2.192480 -6.469440 -0.000000 168.485000 -2.190620 -9.294810 39.081100 -0.000007 -0.000012 0.388871 -0.681067 29.726100 40.985400 -0.000006 -0.000013 16.672700 7.547860 -73.440700 11.754300 -0.000000 0.000003 0.001331 0.140960 -10.860400 -2.192510 6.469440 -0.000001 170.777000 4.509960 161.081000 -39.081100 -0.002282 -0.040193 0.301033 -0.114553 68.967100 -40.985400 0.000008 0.000006 -8.649100 -3.185290 -39.633500 -11.754300 -0.000006 -0.000006 0.000703 0.154862 -10.292700
